<svg xmlns="http://www.w3.org/2000/svg" xmlns:xlink="http://www.w3.org/1999/xlink" xml:space="preserve" version="1.1" style="shape-rendering:geometricPrecision;text-rendering:geometricPrecision;image-rendering:optimizeQuality;" viewBox="0 0 333 416.25" x="0px" y="0px" fill-rule="evenodd" clip-rule="evenodd"><defs><style type="text/css">
   
    .fil0 {fill:black}
   
  </style></defs><g><path class="fil0" d="M124 126c7,22 23,39 52,40 -9,-13 -16,-17 -10,-36 7,-22 51,-78 -15,-117 14,46 -35,78 -27,113z"/><path class="fil0" d="M207 80c-67,72 -12,114 25,64 19,-30 4,-42 42,-71 -14,-1 -36,-21 -67,7z"/><path class="fil0" d="M105 233c14,-27 9,-60 0,-76 -9,-19 -31,-49 -34,-65 -46,63 15,138 34,141z"/><polygon class="fil0" points="81,307 78,314 90,320 93,313 158,180 146,174 "/><path class="fil0" d="M193 37c5,17 6,20 2,40 13,-14 17,-17 33,-24 3,-12 1,-20 -5,-29 -10,-1 -24,4 -30,13z"/><path class="fil0" d="M120 286c14,-29 43,-49 61,-55 21,-7 58,-13 73,-22 -23,78 -113,91 -134,77z"/></g><text x="0" y="348" fill="#000000" font-size="5px" font-weight="bold" font-family="'Helvetica Neue', Helvetica, Arial-Unicode, Arial, Sans-serif">Created by Alfatehah</text><text x="0" y="353" fill="#000000" font-size="5px" font-weight="bold" font-family="'Helvetica Neue', Helvetica, Arial-Unicode, Arial, Sans-serif">from the Noun Project</text></svg>